<?xml version="1.0" encoding="UTF-8" standalone="no"?>
<!-- Created with Inkscape (http://www.inkscape.org/) -->

<svg
   xmlns:dc="http://purl.org/dc/elements/1.1/"
   xmlns:cc="http://creativecommons.org/ns#"
   xmlns:rdf="http://www.w3.org/1999/02/22-rdf-syntax-ns#"
   xmlns:svg="http://www.w3.org/2000/svg"
   xmlns="http://www.w3.org/2000/svg"
   xmlns:sodipodi="http://sodipodi.sourceforge.net/DTD/sodipodi-0.dtd"
   xmlns:inkscape="http://www.inkscape.org/namespaces/inkscape"
   width="793.70081"
   height="1122.5197"
   viewBox="0 0 210 297"
   version="1.1"
   id="svg8"
   sodipodi:docname="seprote logo.svg"
   inkscape:version="0.92.1 r15371">
  <defs
     id="defs2" />
  <sodipodi:namedview
     id="base"
     pagecolor="#ffffff"
     bordercolor="#666666"
     borderopacity="1.0"
     inkscape:pageopacity="0.0"
     inkscape:pageshadow="2"
     inkscape:zoom="0.35355339"
     inkscape:cx="485.85229"
     inkscape:cy="517.76086"
     inkscape:document-units="mm"
     inkscape:current-layer="layer1"
     showgrid="false"
     showguides="true"
     inkscape:guide-bbox="true"
     inkscape:window-width="1366"
     inkscape:window-height="715"
     inkscape:window-x="-8"
     inkscape:window-y="-8"
     inkscape:window-maximized="1"
     inkscape:snap-page="false"
     units="px" />
  <metadata
     id="metadata5">
    <rdf:RDF>
      <cc:Work
         rdf:about="">
        <dc:format>image/svg+xml</dc:format>
        <dc:type
           rdf:resource="http://purl.org/dc/dcmitype/StillImage" />
        <dc:title></dc:title>
      </cc:Work>
    </rdf:RDF>
  </metadata>
  <g
     inkscape:label="Calque 1"
     inkscape:groupmode="layer"
     id="layer1">
    <g
       id="g229-2-6-6"
       transform="matrix(4.0000052,0,0,4.0000052,-480.57769,-378.55196)"
       inkscape:export-filename="C:\Users\Blü\Desktop\Projects\Seprote 2\seprote 2 logo.png"
       inkscape:export-xdpi="90"
       inkscape:export-ydpi="90">
      <path
         style="color:#000000;display:inline;overflow:visible;visibility:visible;opacity:1;fill:#f0613a;fill-opacity:1;fill-rule:nonzero;stroke:none;stroke-width:0.96848845;stroke-linecap:square;stroke-linejoin:miter;stroke-miterlimit:4;stroke-dasharray:none;stroke-dashoffset:0;stroke-opacity:1;marker:none;enable-background:accumulate"
         id="path347-7-2-0"
         sodipodi:type="arc"
         sodipodi:cx="165.89159"
         sodipodi:cy="107.54669"
         sodipodi:rx="4.0574856"
         sodipodi:ry="4.0574856"
         sodipodi:start="0"
         sodipodi:end="6.2830282"
         d="m 169.94907,107.54669 a 4.0574856,4.0574856 0 0 1 -4.05732,4.05749 4.0574856,4.0574856 0 0 1 -4.05765,-4.05717 4.0574856,4.0574856 0 0 1 4.05701,-4.0578 4.0574856,4.0574856 0 0 1 4.05796,4.05684 l -4.05748,6.4e-4 z" />
      <path
         style="fill:#f09b53;stroke-width:0.26458332"
         d="m 138.69411,127.05127 c 0.48046,-2.68214 1.11455,-5.03399 1.40728,-6.13723 0.39098,-3.94027 2.93516,-8.84429 6.95381,-7.26656 2.70351,1.56087 3.77398,3.94704 5.13371,7.94568 1.02732,3.0211 3.16399,7.66369 4.13605,9.8737 2.7563,2.43573 4.31693,-2.04337 4.81446,-3.41488 0.74981,-2.32751 3.33669,-8.1933 4.23552,-9.60409 1.0544,-1.65498 1.35344,-2.01827 2.97555,-2.73581 1.41196,0.37833 1.94584,0.89354 2.62829,2.07558 -2.2059,0 -3.46237,3.49365 -5.29497,11.06373 -1.65481,6.17583 -3.08957,14.28363 -9.56338,13.12084 -1.062,-0.72171 -4.94409,-5.83013 -5.86978,-11.89403 -1.10233,-7.22104 -2.68852,-11.58469 -3.90858,-12.61666 -0.83198,-0.27732 -2.29316,3.07386 -3.44987,9.58973 z"
         id="path249-7-1-5"
         inkscape:connector-curvature="0"
         sodipodi:nodetypes="cccscccccccsccc" />
      <path
         style="color:#000000;display:inline;overflow:visible;visibility:visible;opacity:1;fill:#0390d2;fill-opacity:1;fill-rule:nonzero;stroke:none;stroke-width:0.96848845;stroke-linecap:square;stroke-linejoin:miter;stroke-miterlimit:4;stroke-dasharray:none;stroke-dashoffset:0;stroke-opacity:1;marker:none;enable-background:accumulate"
         id="path347-4-5-7-8"
         sodipodi:type="arc"
         sodipodi:cx="126.47392"
         sodipodi:cy="107.50309"
         sodipodi:rx="4.0574856"
         sodipodi:ry="4.0574856"
         sodipodi:start="0"
         sodipodi:end="6.2830282"
         d="m 130.53141,107.50309 a 4.0574856,4.0574856 0 0 1 -4.05733,4.05749 4.0574856,4.0574856 0 0 1 -4.05764,-4.05717 4.0574856,4.0574856 0 0 1 4.057,-4.05781 4.0574856,4.0574856 0 0 1 4.05797,4.05685 l -4.05749,6.4e-4 z" />
      <path
         style="fill:#4ba8d4;stroke-width:0.26458332"
         d="m 110.09055,127.05127 c 2.46326,-6.95894 6.35642,-11.76457 11.64111,-11.76457 1.11052,0 2.25511,0.0653 3.2518,0.7246 -1.25477,0.45176 -2.45755,0.91682 -3.48639,1.68906 0,0 -0.52015,0.078 -1.51714,1.103 -0.99699,1.02499 -2.79504,8.24791 -2.79504,8.24791 z m 62.55831,-8.0688 c -0.51715,-1.09656 -0.96259,-1.19584 -1.67008,-1.19481 -0.28986,-0.50205 -0.71931,-0.97951 -1.01978,-1.27116 -0.36321,-0.35256 -1.12884,-0.6759 -1.60851,-0.80442 1.29387,-0.54117 4.44568,-0.64348 6.29785,0.3516 4.02449,2.16217 7.4381,8.64883 8.19106,10.98863 -1.65476,0 -2.79221,0.006 -3.37021,0.006 -0.59455,0 -1.26897,-0.007 -3.68167,-0.007 -0.93202,-2.73208 -1.90844,-5.46032 -3.13866,-8.06884 z"
         id="path247-3-9-8"
         inkscape:connector-curvature="0"
         sodipodi:nodetypes="cscczccscscacscs" />
      <path
         style="fill:#f0734f;stroke-width:0.26458332"
         d="m 149.42701,127.04685 c -0.31696,-1.1829 -0.70677,-5.85222 -2.22282,-8.27138 -0.69666,-1.11165 -1.66638,-2.66695 -2.97516,-2.57649 -2.08387,0.14404 -3.41191,3.305 -4.12764,4.71506 0.31459,-3.69166 1.95362,-7.66236 5.01087,-7.68217 5.54525,-0.0359 7.3427,9.43691 9.26858,13.81498 z m -23.33662,0.004 c -0.63639,-3.41549 -1.25113,-6.32274 -3.28042,-8.64087 -0.32767,-0.37431 -0.82888,-0.71386 -1.3129,-0.70962 0.26775,-0.43537 0.89396,-1.04423 1.59744,-1.30993 0.70348,-0.26571 1.21138,-0.38772 1.9328,-0.39124 0.76948,0.45366 1.69937,1.75647 2.34362,2.78442 1.60277,2.55735 2.44494,5.36245 3.6923,8.26724 z"
         id="path245-0-4-8"
         inkscape:connector-curvature="0"
         sodipodi:nodetypes="caacacccacscacc" />
      <path
         style="fill:#f48c1e;stroke-width:0.26458332"
         d="m 157.74362,132.02882 c 1.06544,-0.0699 1.35017,-0.21576 2.11181,-1.21656 0.6998,-1.21209 1.20559,-2.39348 1.62765,-3.76099 2.26517,0 4.12239,-0.0129 4.64506,0 -0.0808,0.32742 -0.53161,1.99312 -0.77323,3.30281 -0.54441,2.50747 -0.32597,1.66197 -0.94567,3.93656 -0.89541,2.59374 -8.16948,1.88916 -8.08428,-2.82378 0.44498,0.62238 1.05089,0.56196 1.41866,0.56196 z m -24.8276,-1.05194 c 0,0 0.72559,0.92762 1.25792,1.04183 0.75489,0.16197 1.62444,-0.0326 2.23292,-0.61557 0.62731,-0.601 1.71459,-2.68114 2.28725,-4.35187 h 4.19809 c -0.0551,1.13509 -0.66804,4.68067 -1.07526,6.24318 -2.88117,6.00475 -8.98286,-0.84723 -8.90092,-2.31757 z"
         id="path241-2-4-2"
         inkscape:connector-curvature="0"
         sodipodi:nodetypes="cccccccccaccccc" />
      <path
         style="fill:#ee5126;stroke-width:0.26458332"
         d="m 128.04676,136.17492 c -0.7935,-2.96139 -1.62572,-7.25744 -1.95637,-9.12407 2.14311,-0.0211 2.57406,-0.011 4.97284,0 l 0.92971,1.96854 c 1.08302,2.26261 3.19042,6.10096 6.14548,6.50127 1.42026,0.1924 2.70242,-1.05068 3.67852,-2.22621 -0.37251,1.39024 -2.29404,8.62835 -7.04428,8.83877 -3.66599,0 -5.84278,-2.66246 -6.7259,-5.9583 z m 29.6653,6.18809 c -2.77068,0 -4.14623,-2.27766 -4.96814,-3.65656 -1.97852,-3.4269 -3.22785,-11.15347 -3.31691,-11.6596 h 2.50261 2.45122 c 2.4973,6.04039 3.33116,7.83379 6.92094,8.46666 1.26518,0.22305 2.71952,-1.06484 3.31257,-1.96995 -0.30401,1.13459 -2.18947,8.81945 -6.90229,8.81945 z"
         id="path235-2-7-4"
         inkscape:connector-curvature="0"
         sodipodi:nodetypes="scccaccscccccacc" />
      <path
         style="fill:#0390d2;stroke-width:0.26458332"
         d="m 108.9467,144.9438 c -2.77417,-0.74334 -3.27612,-2.46274 -3.10499,-5.2492 0.17113,-2.78646 1.47778,-5.89666 1.74368,-6.53676 0.83505,-2.03552 1.67011,-4.07105 2.50516,-6.10657 1.28981,-0.002 5.70665,0 7.09434,0 -0.0766,0.32742 -1.01113,3.77912 -1.79369,7.27162 -0.56642,2.07128 -0.93492,4.81489 -1.61944,7.00423 -0.68379,2.18702 -1.70687,4.4522 -4.82506,3.61668 z m 73.01025,0.076 c -1.79413,-0.37973 -2.44011,-1.91782 -4.30492,-10.25019 -0.86919,-3.88374 -1.78553,-7.46368 -1.86451,-7.71834 h 7.05449 l 0.46335,1.2523 c 2.44709,5.48844 3.68129,9.56295 3.67126,12.12013 -0.009,2.21124 -0.26004,3.03574 -1.30717,3.94059 -0.95083,0.82162 -2.51569,0.90881 -3.7125,0.65551 z"
         id="path233-3-9-1"
         inkscape:connector-curvature="0"
         sodipodi:nodetypes="ssccccssssccccas" />
      <text
         xml:space="preserve"
         style="font-style:normal;font-variant:normal;font-weight:normal;font-stretch:normal;font-size:9.87777805px;line-height:125%;font-family:'Intro ';-inkscape-font-specification:'Intro ';letter-spacing:0px;word-spacing:0px;fill:#0166ac;fill-opacity:1;stroke:none;stroke-width:0.26458332px;stroke-linecap:butt;stroke-linejoin:miter;stroke-opacity:1"
         x="125.47562"
         y="157.37907"
         id="text381-8-4-9"><tspan
           sodipodi:role="line"
           id="tspan379-8-4-7"
           x="125.47562"
           y="157.37907"
           style="font-style:normal;font-variant:normal;font-weight:normal;font-stretch:normal;font-size:14.11111069px;font-family:Harabara;-inkscape-font-specification:Harabara;fill:#0166ac;fill-opacity:1;stroke-width:0.26458332px">Seprote</tspan></text>
    </g>
  </g>
</svg>
